<?xml version="1.0" encoding="UTF-8" ?>
<!DOCTYPE svg PUBLIC "-//W3C//DTD SVG 1.1//EN" "http://www.w3.org/Graphics/SVG/1.1/DTD/svg11.dtd">
<svg width="818pt" height="874pt" viewBox="0 0 818 874" version="1.1" xmlns="http://www.w3.org/2000/svg">
<g id="#000000ff">
<path fill="#000000" opacity="1.00" d=" M 249.05 333.67 C 253.30 334.60 257.56 335.53 261.83 336.38 C 262.11 341.53 262.46 346.69 263.44 351.76 C 263.85 346.84 264.21 341.91 265.37 337.10 C 269.82 337.90 274.27 338.70 278.73 339.41 C 278.03 350.40 279.52 361.35 280.27 372.29 C 277.21 372.28 274.16 372.26 271.12 372.24 C 270.19 363.38 269.62 354.48 268.97 345.60 C 267.95 354.44 268.58 363.35 268.63 372.23 C 266.36 372.21 264.10 372.19 261.84 372.18 C 260.28 362.80 258.25 353.50 257.36 344.03 C 256.66 353.46 258.73 362.79 259.45 372.16 C 256.61 372.14 253.76 372.11 250.92 372.09 C 249.48 359.36 247.29 346.49 249.05 333.67 Z" />
<path fill="#000000" opacity="1.00" d=" M 423.35 338.06 C 428.87 337.29 434.33 335.25 439.96 335.70 C 443.51 336.03 445.56 339.58 445.68 342.86 C 446.01 348.96 445.30 355.07 444.53 361.12 C 443.96 365.31 442.13 370.18 437.66 371.52 C 432.44 372.75 427.01 372.01 421.70 372.25 C 422.58 360.88 424.31 349.48 423.35 338.06 M 433.26 341.94 C 433.41 349.93 432.38 357.86 431.80 365.81 C 432.45 365.41 433.73 364.63 434.37 364.23 C 435.77 357.00 436.15 349.53 435.94 342.17 C 435.27 342.11 433.93 342.00 433.26 341.94 Z" />
<path fill="#000000" opacity="1.00" d=" M 410.13 340.18 C 413.27 339.71 416.42 339.23 419.57 338.77 C 420.31 349.97 418.76 361.13 417.93 372.27 C 414.84 372.29 411.76 372.31 408.67 372.32 C 409.32 361.62 410.68 350.92 410.13 340.18 Z" />
<path fill="#000000" opacity="1.00" d=" M 280.76 339.76 C 284.11 340.24 287.46 340.72 290.81 341.16 C 291.10 344.97 291.43 348.79 292.19 352.55 C 292.74 348.89 293.15 345.21 293.77 341.56 C 296.88 341.91 299.99 342.27 303.10 342.60 C 300.54 347.94 298.87 353.65 297.67 359.43 C 296.90 363.72 297.68 368.07 297.84 372.38 C 294.75 372.37 291.66 372.36 288.57 372.34 C 288.15 367.34 288.37 362.18 286.58 357.41 C 284.54 351.56 282.47 345.72 280.76 339.76 Z" />
<path fill="#000000" opacity="1.00" d=" M 396.97 341.94 C 400.14 341.55 403.30 341.15 406.47 340.74 C 406.82 348.21 406.29 355.69 405.71 363.13 C 405.41 366.04 405.05 369.48 402.49 371.35 C 399.56 373.40 395.80 372.81 392.45 372.94 C 392.55 370.57 392.66 368.20 392.78 365.84 C 393.57 365.76 395.15 365.61 395.94 365.54 C 396.86 357.72 397.13 349.82 396.97 341.94 Z" />
<path fill="#000000" opacity="1.00" d=" M 374.65 344.49 C 379.08 343.10 383.99 342.54 388.54 343.63 C 391.31 344.33 391.14 347.48 391.48 349.73 C 388.62 349.88 385.77 350.01 382.93 350.14 C 382.86 349.23 382.73 347.41 382.66 346.50 C 381.19 346.72 380.46 347.54 380.46 348.96 C 383.49 352.49 389.05 353.57 390.81 358.24 C 392.20 363.46 390.66 370.94 384.68 372.46 C 380.87 373.34 376.30 373.46 373.12 370.83 C 370.28 368.41 370.51 364.36 370.37 360.98 C 373.33 360.94 376.30 360.91 379.28 360.88 C 379.38 362.77 379.29 364.72 379.99 366.53 C 382.23 365.96 381.94 363.14 381.32 361.45 C 378.89 357.99 374.56 356.44 372.12 352.98 C 370.17 350.17 371.06 345.46 374.65 344.49 Z" />
<path fill="#000000" opacity="1.00" d=" M 312.62 343.48 C 316.95 343.78 321.30 344.06 325.64 344.32 C 326.30 347.70 326.85 351.10 327.47 354.49 C 327.92 351.14 328.37 347.80 328.99 344.48 C 333.53 344.61 338.07 344.73 342.61 344.86 C 342.54 354.07 342.66 363.29 342.68 372.51 C 339.64 372.49 336.61 372.47 333.57 372.46 C 333.35 364.78 333.56 357.08 333.13 349.40 C 331.80 357.02 331.68 364.78 331.09 372.47 C 328.84 372.47 326.59 372.47 324.34 372.47 C 323.54 364.45 322.67 356.43 321.39 348.47 C 321.00 356.47 321.96 364.47 321.96 372.48 C 319.13 372.45 316.31 372.44 313.49 372.43 C 313.16 362.78 312.53 353.14 312.62 343.48 Z" />
<path fill="#000000" opacity="1.00" d=" M 349.27 344.83 C 354.37 344.77 359.46 344.65 364.55 344.48 C 366.67 353.66 367.22 363.11 368.13 372.47 C 364.94 372.47 361.74 372.47 358.56 372.47 C 358.43 369.98 358.29 367.49 358.17 365.00 C 357.42 365.00 355.91 365.00 355.16 365.00 C 354.98 367.50 354.79 370.00 354.62 372.50 C 351.46 372.50 348.31 372.50 345.16 372.51 C 346.24 363.24 347.18 353.94 349.27 344.83 M 356.67 347.58 C 356.17 351.20 355.86 354.84 355.57 358.49 C 356.14 358.49 357.29 358.51 357.86 358.52 C 357.59 354.86 357.32 351.19 356.67 347.58 Z" />
<path fill="#000000" opacity="1.00" d=" M 247.50 390.00 C 355.17 390.00 462.84 390.00 570.51 390.01 C 570.50 414.67 570.50 439.33 570.50 464.00 C 555.17 464.01 539.84 464.00 524.50 464.00 C 524.50 489.50 524.51 515.00 524.50 540.50 C 432.17 540.50 339.83 540.50 247.50 540.50 C 247.49 490.33 247.50 440.17 247.50 390.00 M 259.41 398.35 C 254.45 403.06 254.11 410.54 254.70 416.93 C 255.42 423.86 260.78 428.86 265.60 433.33 C 268.65 436.29 272.54 439.35 272.56 444.02 C 272.61 446.05 272.97 450.01 269.84 449.30 C 267.92 446.33 269.01 442.52 268.73 439.18 C 263.76 439.18 258.79 439.18 253.82 439.18 C 253.85 445.28 253.65 452.20 258.02 457.03 C 262.29 461.61 269.13 461.88 274.96 461.29 C 280.07 460.84 285.07 457.71 286.74 452.70 C 288.69 446.68 288.94 439.94 287.03 433.88 C 284.23 426.26 276.88 422.00 271.70 416.21 C 269.83 414.30 269.54 411.47 269.90 408.94 C 269.69 407.50 271.67 405.84 272.79 407.24 C 274.13 409.90 273.37 413.06 273.57 415.94 C 278.15 415.93 282.74 415.94 287.33 415.93 C 287.54 409.08 287.42 400.19 280.44 396.56 C 273.88 393.61 265.11 393.53 259.41 398.35 M 495.31 395.59 C 488.91 397.25 484.77 403.62 484.73 410.06 C 484.54 420.69 484.72 431.32 484.64 441.95 C 484.58 447.00 485.05 452.54 488.49 456.54 C 491.76 460.40 497.11 461.57 501.97 461.51 C 506.93 461.55 512.36 460.67 516.05 457.08 C 519.55 453.73 520.54 448.69 520.62 444.04 C 520.73 434.70 520.62 425.35 520.67 416.01 C 520.75 410.58 520.54 404.58 516.82 400.25 C 511.62 394.23 502.54 393.60 495.31 395.59 M 529.93 399.98 C 525.93 405.68 525.84 413.34 527.34 419.90 C 529.94 429.01 539.79 433.00 544.00 441.01 C 544.53 443.50 545.95 449.51 541.91 449.25 C 539.81 446.42 541.07 442.48 540.73 439.18 C 535.76 439.18 530.78 439.18 525.82 439.18 C 525.85 445.28 525.65 452.21 530.02 457.03 C 534.57 461.84 541.86 461.96 547.98 461.13 C 552.72 460.48 557.16 457.36 558.73 452.73 C 560.69 446.71 560.94 439.97 559.04 433.90 C 556.23 426.26 548.86 422.00 543.68 416.18 C 541.64 414.05 541.44 410.82 542.09 408.09 C 542.27 406.50 544.95 406.17 545.22 408.02 C 545.80 410.61 545.51 413.30 545.57 415.94 C 550.15 415.93 554.74 415.94 559.33 415.93 C 559.54 409.06 559.41 400.15 552.39 396.53 C 545.27 393.38 535.17 393.46 529.93 399.98 M 297.90 395.58 C 295.63 417.24 293.29 438.90 290.99 460.56 C 296.29 460.58 301.58 460.56 306.88 460.58 C 307.23 456.02 307.39 451.46 307.71 446.90 C 309.34 446.91 310.97 446.92 312.61 446.93 C 312.90 451.47 313.16 456.02 313.38 460.56 C 318.76 460.57 324.14 460.57 329.52 460.56 C 327.26 438.90 324.95 417.24 322.71 395.58 C 314.44 395.58 306.17 395.58 297.90 395.58 M 334.06 395.58 C 334.06 417.24 334.06 438.91 334.06 460.57 C 343.59 460.56 353.11 460.57 362.64 460.57 C 363.13 456.13 363.67 451.70 364.19 447.26 C 359.36 447.27 354.53 447.26 349.70 447.27 C 349.70 430.04 349.70 412.81 349.70 395.58 C 344.48 395.58 339.27 395.58 334.06 395.58 M 372.90 395.58 C 370.63 417.24 368.29 438.90 365.99 460.56 C 371.29 460.58 376.58 460.56 381.88 460.58 C 382.23 456.03 382.39 451.47 382.70 446.92 C 384.33 446.91 385.96 446.91 387.60 446.92 C 387.90 451.46 388.15 456.01 388.38 460.56 C 393.76 460.57 399.14 460.57 404.52 460.56 C 402.26 438.90 399.95 417.24 397.70 395.58 C 389.44 395.58 381.17 395.58 372.90 395.58 M 409.06 395.58 C 409.06 417.24 409.06 438.91 409.06 460.57 C 414.27 460.57 419.49 460.57 424.70 460.57 C 424.70 451.36 424.70 442.16 424.70 432.96 C 426.19 432.96 427.68 432.96 429.18 432.96 C 429.18 442.16 429.18 451.37 429.18 460.57 C 434.45 460.57 439.71 460.56 444.98 460.57 C 444.98 438.91 444.98 417.25 444.98 395.58 C 439.71 395.58 434.45 395.58 429.18 395.58 C 429.18 403.73 429.18 411.89 429.18 420.04 C 427.68 420.03 426.19 420.03 424.70 420.04 C 424.70 411.89 424.71 403.73 424.70 395.58 C 419.48 395.58 414.27 395.58 409.06 395.58 M 463.63 395.58 C 463.63 417.24 463.63 438.90 463.63 460.57 C 468.82 460.57 474.01 460.57 479.20 460.57 C 479.21 438.90 479.20 417.24 479.20 395.58 C 474.01 395.58 468.82 395.58 463.63 395.58 M 272.35 467.58 C 271.83 479.38 271.48 491.19 270.99 503.00 C 270.91 504.57 270.68 506.15 270.18 507.66 C 269.59 494.32 269.49 480.94 269.22 467.58 C 263.81 467.58 258.41 467.57 253.00 467.59 C 254.52 489.25 256.01 510.91 257.60 532.57 C 263.32 532.57 269.03 532.56 274.75 532.57 C 275.59 523.61 275.86 514.56 277.20 505.66 C 278.28 514.59 278.37 523.62 279.20 532.58 C 284.75 532.56 290.30 532.56 295.85 532.58 C 297.81 510.91 299.74 489.25 301.60 467.57 C 296.63 467.58 291.66 467.58 286.69 467.58 C 286.51 481.04 286.34 494.51 285.75 507.96 C 284.42 505.53 284.83 502.68 284.57 500.04 C 284.25 489.22 283.98 478.40 283.74 467.58 C 279.94 467.58 276.14 467.58 272.35 467.58 M 373.67 470.66 C 369.92 473.96 368.62 479.16 368.65 483.98 C 368.65 494.32 368.67 504.66 368.64 515.00 C 368.66 518.90 368.90 522.92 370.44 526.56 C 373.85 535.55 388.25 535.96 392.97 527.94 C 393.05 529.47 393.15 531.00 393.26 532.54 C 397.06 532.58 400.86 532.56 404.66 532.57 C 404.66 519.82 404.66 507.08 404.66 494.34 C 398.57 494.34 392.47 494.33 386.38 494.34 C 386.37 498.65 386.37 502.95 386.38 507.26 C 387.02 507.26 388.29 507.26 388.93 507.26 C 388.79 511.40 389.31 515.61 388.53 519.71 C 387.90 522.30 384.00 521.25 384.40 518.73 C 384.13 507.84 384.39 496.93 384.28 486.03 C 384.37 484.01 384.07 481.88 384.83 479.95 C 385.15 478.43 388.27 478.49 388.47 480.13 C 389.03 482.97 388.74 485.89 388.80 488.76 C 394.09 488.76 399.39 488.77 404.69 488.75 C 404.69 483.52 404.81 477.85 401.77 473.32 C 399.05 469.03 393.90 467.02 389.00 466.69 C 383.69 466.28 377.80 466.97 373.67 470.66 M 481.67 470.57 C 476.54 475.87 476.39 484.09 477.57 490.93 C 479.61 499.35 487.61 503.94 492.84 510.20 C 494.98 512.59 495.33 516.00 494.99 519.08 C 495.17 520.44 493.19 522.47 492.09 520.85 C 490.55 517.95 491.48 514.37 491.23 511.18 C 486.26 511.18 481.28 511.17 476.31 511.19 C 476.37 517.15 476.13 523.88 480.25 528.71 C 484.58 533.70 491.88 533.94 497.97 533.21 C 503.12 532.67 507.97 529.23 509.44 524.15 C 511.22 517.91 511.53 510.93 509.11 504.82 C 505.81 497.19 497.91 493.26 493.17 486.77 C 492.09 484.33 491.33 480.28 493.97 478.63 C 497.52 479.99 495.53 484.97 496.07 487.94 C 500.66 487.93 505.24 487.94 509.83 487.93 C 510.01 481.19 509.97 472.50 503.25 468.74 C 496.58 465.53 487.43 465.45 481.67 470.57 M 305.63 467.58 C 305.63 489.24 305.63 510.90 305.63 532.57 C 310.82 532.57 316.01 532.57 321.20 532.57 C 321.21 510.90 321.20 489.24 321.20 467.58 C 316.01 467.58 310.82 467.58 305.63 467.58 M 327.56 467.58 C 327.56 489.24 327.56 510.91 327.56 532.57 C 335.06 532.47 342.57 532.78 350.06 532.38 C 354.90 532.09 359.74 529.31 361.51 524.64 C 364.60 516.81 363.13 508.21 363.48 500.02 C 363.11 492.10 364.61 483.78 361.66 476.20 C 359.70 470.99 354.22 468.17 348.91 467.80 C 341.81 467.31 334.67 467.70 327.56 467.58 M 411.06 467.58 C 411.06 489.24 411.05 510.91 411.06 532.57 C 420.45 532.57 429.84 532.57 439.23 532.57 C 439.81 528.26 440.41 523.96 441.00 519.66 C 436.23 519.65 431.46 519.65 426.70 519.66 C 426.70 514.71 426.70 509.76 426.70 504.82 C 430.63 504.82 434.57 504.82 438.50 504.82 C 438.50 500.52 438.50 496.22 438.50 491.93 C 434.56 491.93 430.63 491.93 426.69 491.93 C 426.70 488.10 426.70 484.27 426.70 480.44 C 430.85 480.44 435.01 480.44 439.16 480.44 C 439.16 476.15 439.16 471.86 439.16 467.58 C 429.79 467.58 420.43 467.58 411.06 467.58 M 442.68 467.58 C 442.68 471.86 442.68 476.15 442.68 480.44 C 445.24 480.43 447.81 480.44 450.38 480.44 C 450.37 497.81 450.38 515.19 450.38 532.57 C 455.56 532.57 460.73 532.56 465.92 532.57 C 465.92 515.19 465.92 497.82 465.92 480.44 C 468.48 480.44 471.05 480.43 473.62 480.44 C 473.62 476.15 473.62 471.86 473.62 467.58 C 463.31 467.58 452.99 467.58 442.68 467.58 Z" />
<path fill="#000000" opacity="1.00" d=" M 501.12 407.20 C 502.68 406.36 504.84 407.17 504.69 409.15 C 504.96 420.79 504.70 432.44 504.81 444.08 C 504.69 445.85 505.09 448.37 503.06 449.25 C 500.56 449.63 500.24 446.82 500.30 445.04 C 500.27 434.02 500.31 422.99 500.28 411.97 C 500.32 410.36 500.21 408.62 501.12 407.20 Z" />
<path fill="#000000" opacity="1.00" d=" M 309.84 408.27 C 311.20 416.76 311.19 425.43 311.93 434.00 C 311.02 434.00 309.20 433.99 308.29 433.99 C 308.83 425.42 308.99 416.81 309.84 408.27 Z" />
<path fill="#000000" opacity="1.00" d=" M 384.87 408.08 C 386.14 416.65 386.21 425.37 386.93 434.00 C 386.02 434.00 384.20 433.99 383.29 433.99 C 383.84 425.36 383.98 416.68 384.87 408.08 Z" />
<path fill="#000000" opacity="1.00" d=" M 343.29 479.04 C 345.10 479.30 347.71 479.67 347.58 482.09 C 347.83 492.73 347.58 503.38 347.70 514.03 C 347.63 515.76 347.85 517.58 347.29 519.26 C 346.68 520.88 344.63 520.64 343.29 521.16 C 343.15 507.12 343.15 493.08 343.29 479.04 Z" />
</g>
<g id="#ffffffff">
<path fill="#ffffff" opacity="1.00" d=" M 259.41 398.35 C 265.11 393.53 273.88 393.61 280.44 396.56 C 287.42 400.19 287.54 409.08 287.33 415.93 C 282.74 415.94 278.15 415.93 273.57 415.94 C 273.37 413.06 274.13 409.90 272.79 407.24 C 271.67 405.84 269.69 407.50 269.90 408.94 C 269.54 411.47 269.83 414.30 271.70 416.21 C 276.88 422.00 284.23 426.26 287.03 433.88 C 288.94 439.94 288.69 446.68 286.74 452.70 C 285.07 457.71 280.07 460.84 274.96 461.29 C 269.13 461.88 262.29 461.61 258.02 457.03 C 253.65 452.20 253.85 445.28 253.82 439.18 C 258.79 439.18 263.76 439.18 268.73 439.18 C 269.01 442.52 267.92 446.33 269.84 449.30 C 272.97 450.01 272.61 446.05 272.56 444.02 C 272.54 439.35 268.65 436.29 265.60 433.33 C 260.78 428.86 255.42 423.86 254.70 416.93 C 254.11 410.54 254.45 403.06 259.41 398.35 Z" />
<path fill="#ffffff" opacity="1.00" d=" M 495.31 395.59 C 502.54 393.60 511.62 394.23 516.82 400.25 C 520.54 404.58 520.75 410.58 520.67 416.01 C 520.62 425.35 520.73 434.70 520.62 444.04 C 520.54 448.69 519.55 453.73 516.05 457.08 C 512.36 460.67 506.93 461.55 501.97 461.51 C 497.11 461.57 491.76 460.40 488.49 456.54 C 485.05 452.54 484.58 447.00 484.64 441.95 C 484.72 431.32 484.54 420.69 484.73 410.06 C 484.77 403.62 488.91 397.25 495.31 395.59 M 501.12 407.20 C 500.21 408.62 500.32 410.36 500.28 411.97 C 500.31 422.99 500.27 434.02 500.30 445.04 C 500.24 446.82 500.56 449.63 503.06 449.25 C 505.09 448.37 504.69 445.85 504.81 444.08 C 504.70 432.44 504.96 420.79 504.69 409.15 C 504.84 407.17 502.68 406.36 501.12 407.20 Z" />
<path fill="#ffffff" opacity="1.00" d=" M 529.93 399.98 C 535.17 393.46 545.27 393.38 552.39 396.53 C 559.41 400.15 559.54 409.06 559.33 415.93 C 554.74 415.94 550.15 415.93 545.57 415.94 C 545.51 413.30 545.80 410.61 545.22 408.02 C 544.95 406.17 542.27 406.50 542.09 408.09 C 541.44 410.82 541.64 414.05 543.68 416.18 C 548.86 422.00 556.23 426.26 559.04 433.90 C 560.94 439.97 560.69 446.71 558.73 452.73 C 557.16 457.36 552.72 460.48 547.98 461.13 C 541.86 461.96 534.57 461.84 530.02 457.03 C 525.65 452.21 525.85 445.28 525.82 439.18 C 530.78 439.18 535.76 439.18 540.73 439.18 C 541.07 442.48 539.81 446.42 541.91 449.25 C 545.95 449.51 544.53 443.50 544.00 441.01 C 539.79 433.00 529.94 429.01 527.34 419.90 C 525.84 413.34 525.93 405.68 529.93 399.98 Z" />
<path fill="#ffffff" opacity="1.00" d=" M 297.90 395.58 C 306.17 395.58 314.44 395.58 322.71 395.58 C 324.95 417.24 327.26 438.90 329.52 460.56 C 324.14 460.57 318.76 460.57 313.38 460.56 C 313.16 456.02 312.90 451.47 312.61 446.93 C 310.97 446.92 309.34 446.91 307.71 446.90 C 307.39 451.46 307.23 456.02 306.88 460.58 C 301.58 460.56 296.29 460.58 290.99 460.56 C 293.29 438.90 295.63 417.24 297.90 395.58 M 309.84 408.27 C 308.99 416.81 308.83 425.42 308.29 433.99 C 309.20 433.99 311.02 434.00 311.93 434.00 C 311.19 425.43 311.20 416.76 309.84 408.27 Z" />
<path fill="#ffffff" opacity="1.00" d=" M 334.06 395.58 C 339.27 395.58 344.48 395.58 349.70 395.58 C 349.70 412.81 349.70 430.04 349.70 447.27 C 354.53 447.26 359.36 447.27 364.19 447.26 C 363.67 451.70 363.13 456.13 362.64 460.57 C 353.11 460.57 343.59 460.56 334.06 460.57 C 334.06 438.91 334.06 417.24 334.06 395.58 Z" />
<path fill="#ffffff" opacity="1.00" d=" M 372.90 395.58 C 381.17 395.58 389.44 395.58 397.70 395.58 C 399.95 417.24 402.26 438.90 404.52 460.56 C 399.14 460.57 393.76 460.57 388.38 460.56 C 388.15 456.01 387.90 451.46 387.60 446.92 C 385.96 446.91 384.33 446.91 382.70 446.92 C 382.39 451.47 382.23 456.03 381.88 460.58 C 376.58 460.56 371.29 460.58 365.99 460.56 C 368.29 438.90 370.63 417.24 372.90 395.58 M 384.87 408.08 C 383.98 416.68 383.84 425.36 383.29 433.99 C 384.20 433.99 386.02 434.00 386.93 434.00 C 386.21 425.37 386.14 416.65 384.87 408.08 Z" />
<path fill="#ffffff" opacity="1.00" d=" M 409.06 395.58 C 414.27 395.58 419.48 395.58 424.70 395.58 C 424.71 403.73 424.70 411.89 424.70 420.04 C 426.19 420.03 427.68 420.03 429.18 420.04 C 429.18 411.89 429.18 403.73 429.18 395.58 C 434.45 395.58 439.71 395.58 444.98 395.58 C 444.98 417.25 444.98 438.91 444.98 460.57 C 439.71 460.56 434.45 460.57 429.18 460.57 C 429.18 451.37 429.18 442.16 429.18 432.96 C 427.68 432.96 426.19 432.96 424.70 432.96 C 424.70 442.16 424.70 451.36 424.70 460.57 C 419.49 460.57 414.27 460.57 409.06 460.57 C 409.06 438.91 409.06 417.24 409.06 395.58 Z" />
<path fill="#ffffff" opacity="1.00" d=" M 463.63 395.58 C 468.82 395.58 474.01 395.58 479.20 395.58 C 479.20 417.24 479.21 438.90 479.20 460.57 C 474.01 460.57 468.82 460.57 463.63 460.57 C 463.63 438.90 463.63 417.24 463.63 395.58 Z" />
<path fill="#ffffff" opacity="1.00" d=" M 272.35 467.58 C 276.14 467.58 279.94 467.58 283.74 467.58 C 283.98 478.40 284.25 489.22 284.57 500.04 C 284.83 502.68 284.42 505.53 285.75 507.96 C 286.34 494.51 286.51 481.04 286.69 467.58 C 291.66 467.58 296.63 467.58 301.60 467.57 C 299.74 489.25 297.81 510.91 295.85 532.58 C 290.30 532.56 284.75 532.56 279.20 532.58 C 278.37 523.62 278.28 514.59 277.20 505.66 C 275.86 514.56 275.59 523.61 274.75 532.57 C 269.03 532.56 263.32 532.57 257.60 532.57 C 256.01 510.91 254.52 489.25 253.00 467.59 C 258.41 467.57 263.81 467.58 269.22 467.58 C 269.49 480.94 269.59 494.32 270.18 507.66 C 270.68 506.15 270.91 504.57 270.99 503.00 C 271.48 491.19 271.83 479.38 272.35 467.58 Z" />
<path fill="#ffffff" opacity="1.00" d=" M 373.67 470.66 C 377.80 466.97 383.69 466.28 389.00 466.69 C 393.90 467.02 399.05 469.03 401.77 473.32 C 404.81 477.85 404.69 483.52 404.69 488.75 C 399.39 488.77 394.09 488.76 388.80 488.76 C 388.74 485.89 389.03 482.97 388.47 480.13 C 388.27 478.49 385.15 478.43 384.83 479.95 C 384.07 481.88 384.37 484.01 384.28 486.03 C 384.39 496.93 384.13 507.84 384.40 518.73 C 384.00 521.25 387.90 522.30 388.53 519.71 C 389.31 515.61 388.79 511.40 388.93 507.26 C 388.29 507.26 387.02 507.26 386.38 507.26 C 386.37 502.95 386.37 498.65 386.38 494.34 C 392.47 494.33 398.57 494.34 404.66 494.34 C 404.66 507.08 404.66 519.82 404.66 532.57 C 400.86 532.56 397.06 532.58 393.26 532.54 C 393.15 531.00 393.05 529.47 392.97 527.94 C 388.25 535.96 373.85 535.55 370.44 526.56 C 368.90 522.92 368.66 518.90 368.64 515.00 C 368.67 504.66 368.65 494.32 368.65 483.98 C 368.62 479.16 369.92 473.96 373.67 470.66 Z" />
<path fill="#ffffff" opacity="1.00" d=" M 481.67 470.57 C 487.43 465.45 496.58 465.53 503.25 468.74 C 509.97 472.50 510.01 481.19 509.83 487.93 C 505.24 487.94 500.66 487.93 496.07 487.94 C 495.53 484.97 497.52 479.99 493.97 478.63 C 491.33 480.28 492.09 484.33 493.17 486.77 C 497.91 493.26 505.81 497.19 509.11 504.82 C 511.53 510.93 511.22 517.91 509.44 524.15 C 507.97 529.23 503.12 532.67 497.97 533.21 C 491.88 533.94 484.58 533.70 480.25 528.71 C 476.13 523.88 476.37 517.15 476.31 511.19 C 481.28 511.17 486.26 511.18 491.23 511.18 C 491.48 514.37 490.55 517.95 492.09 520.85 C 493.19 522.47 495.17 520.44 494.99 519.08 C 495.33 516.00 494.98 512.59 492.84 510.20 C 487.61 503.94 479.61 499.35 477.57 490.93 C 476.39 484.09 476.54 475.87 481.67 470.57 Z" />
<path fill="#ffffff" opacity="1.00" d=" M 305.63 467.58 C 310.82 467.58 316.01 467.58 321.20 467.58 C 321.20 489.24 321.21 510.90 321.20 532.57 C 316.01 532.57 310.82 532.57 305.63 532.57 C 305.63 510.90 305.63 489.24 305.63 467.58 Z" />
<path fill="#ffffff" opacity="1.00" d=" M 327.56 467.58 C 334.67 467.70 341.81 467.31 348.91 467.80 C 354.22 468.17 359.70 470.99 361.66 476.20 C 364.61 483.78 363.11 492.10 363.48 500.02 C 363.13 508.21 364.60 516.81 361.51 524.64 C 359.74 529.31 354.90 532.09 350.06 532.38 C 342.57 532.78 335.06 532.47 327.56 532.57 C 327.56 510.91 327.56 489.24 327.56 467.58 M 343.29 479.04 C 343.15 493.08 343.15 507.12 343.29 521.16 C 344.63 520.64 346.68 520.88 347.29 519.26 C 347.85 517.58 347.63 515.76 347.70 514.03 C 347.58 503.38 347.83 492.73 347.58 482.09 C 347.71 479.67 345.10 479.30 343.29 479.04 Z" />
<path fill="#ffffff" opacity="1.00" d=" M 411.06 467.58 C 420.43 467.58 429.79 467.58 439.16 467.58 C 439.16 471.86 439.16 476.15 439.16 480.44 C 435.01 480.44 430.85 480.44 426.70 480.44 C 426.70 484.27 426.70 488.10 426.69 491.93 C 430.63 491.93 434.56 491.93 438.50 491.93 C 438.50 496.22 438.50 500.52 438.50 504.82 C 434.57 504.82 430.63 504.82 426.70 504.82 C 426.70 509.76 426.70 514.71 426.70 519.66 C 431.46 519.65 436.23 519.65 441.00 519.66 C 440.41 523.96 439.81 528.26 439.23 532.57 C 429.84 532.57 420.45 532.57 411.06 532.57 C 411.05 510.91 411.06 489.24 411.06 467.58 Z" />
<path fill="#ffffff" opacity="1.00" d=" M 442.68 467.58 C 452.99 467.58 463.31 467.58 473.62 467.58 C 473.62 471.86 473.62 476.15 473.62 480.44 C 471.05 480.43 468.48 480.44 465.92 480.44 C 465.92 497.82 465.92 515.19 465.92 532.57 C 460.73 532.56 455.56 532.57 450.38 532.57 C 450.38 515.19 450.37 497.81 450.38 480.44 C 447.81 480.44 445.24 480.43 442.68 480.44 C 442.68 476.15 442.68 471.86 442.68 467.58 Z" />
</g>
</svg>
