<?xml version="1.0" encoding="UTF-8" ?>
<!DOCTYPE svg PUBLIC "-//W3C//DTD SVG 1.1//EN" "http://www.w3.org/Graphics/SVG/1.1/DTD/svg11.dtd">
<svg width="600pt" height="600pt" viewBox="0 0 600 600" version="1.1" xmlns="http://www.w3.org/2000/svg">
<g id="#9fef00ff">
<path fill="#9fef00" opacity="1.00" d=" M 297.49 128.76 C 299.48 127.63 301.79 128.35 303.62 129.43 C 323.69 141.02 343.75 152.61 363.84 164.17 C 365.98 165.28 367.80 167.33 367.71 169.88 C 367.83 192.58 367.69 215.30 367.78 238.00 C 368.10 241.40 367.55 245.44 363.99 246.93 C 343.94 258.50 323.88 270.05 303.85 281.64 C 301.56 283.18 298.52 283.35 296.19 281.81 C 276.11 270.24 256.07 258.63 235.98 247.08 C 233.63 245.98 231.84 243.72 231.94 241.04 C 231.84 217.66 231.92 194.28 231.90 170.90 C 231.64 167.88 233.53 165.19 236.22 163.97 C 256.68 152.29 276.97 140.31 297.49 128.76 M 257.09 167.13 C 254.80 167.80 254.39 171.32 256.71 172.22 C 269.17 179.46 281.68 186.62 294.15 193.85 C 296.27 194.75 298.38 197.22 300.78 196.53 C 314.35 188.92 327.72 180.96 341.26 173.28 C 342.56 172.34 344.82 171.77 344.65 169.78 C 344.87 167.98 342.72 167.35 341.57 166.47 C 327.65 158.61 313.95 150.38 299.97 142.63 C 285.48 150.44 271.40 159.01 257.09 167.13 M 245.29 187.07 C 245.15 202.37 245.30 217.68 245.21 232.98 C 245.38 234.74 244.72 237.31 246.87 238.08 C 260.14 245.85 273.52 253.43 286.79 261.18 C 288.15 262.02 289.71 262.44 291.26 262.80 C 291.93 261.30 292.67 259.76 292.51 258.07 C 292.47 242.69 292.55 227.32 292.47 211.95 C 292.83 209.70 290.56 208.81 289.02 207.83 C 275.88 200.34 262.83 192.68 249.69 185.19 C 248.04 183.78 244.99 184.67 245.29 187.07 M 347.51 186.59 C 335.08 193.84 322.59 200.99 310.13 208.18 C 308.77 209.06 306.86 209.97 307.27 211.94 C 307.22 227.65 307.24 243.36 307.26 259.07 C 307.11 260.55 308.13 261.70 308.80 262.91 C 312.64 261.73 315.90 259.34 319.38 257.43 C 330.96 250.60 342.82 244.21 354.22 237.12 C 354.92 221.11 354.29 205.02 354.54 188.98 C 354.52 187.38 354.79 185.45 353.01 184.64 C 350.94 184.12 349.23 185.73 347.51 186.59 Z" />
</g>
<g id="#141d2bff">
<path fill="#141d2b" opacity="1.00" d=" M 165.73 334.66 C 172.80 327.29 185.33 326.72 193.64 332.28 C 198.02 335.27 200.33 340.52 200.32 345.75 C 196.72 345.79 193.13 345.78 189.53 345.77 C 188.46 343.31 187.68 340.27 184.98 339.11 C 181.04 336.83 175.73 338.64 173.60 342.55 C 170.80 347.94 170.79 354.57 172.88 360.20 C 174.46 364.63 179.97 367.66 184.37 365.29 C 187.43 364.15 188.45 360.85 189.57 358.12 C 192.72 358.07 195.87 357.95 199.01 358.12 C 201.40 357.71 200.22 360.70 200.05 361.92 C 199.00 367.07 195.34 371.61 190.49 373.66 C 184.02 376.36 176.30 376.28 170.07 372.96 C 164.16 369.70 160.80 363.05 160.26 356.48 C 159.52 348.92 160.33 340.48 165.73 334.66 Z" />
<path fill="#141d2b" opacity="1.00" d=" M 464.35 329.47 C 471.47 327.57 479.75 328.68 485.45 333.58 C 490.90 338.37 492.98 345.96 492.61 353.01 C 492.76 360.91 489.07 369.36 481.79 373.07 C 472.66 377.62 459.85 376.11 453.62 367.50 C 448.70 360.42 448.10 350.94 450.56 342.85 C 452.39 336.37 457.75 331.00 464.35 329.47 M 468.39 338.47 C 462.55 339.94 460.50 346.64 460.68 351.99 C 460.53 357.14 462.21 363.52 467.61 365.43 C 472.60 367.65 478.67 364.23 480.13 359.14 C 481.30 354.71 481.22 349.93 480.28 345.47 C 479.02 340.42 473.47 336.86 468.39 338.47 Z" />
<path fill="#141d2b" opacity="1.00" d=" M 60.45 373.76 C 60.15 359.09 60.12 344.37 60.49 329.70 C 64.10 329.70 67.71 329.71 71.33 329.75 C 71.46 335.35 71.35 340.96 71.43 346.57 C 76.85 346.67 82.28 346.65 87.70 346.59 C 87.88 340.98 87.75 335.38 87.83 329.77 C 91.41 329.71 94.98 329.70 98.56 329.69 C 98.79 344.61 98.85 359.56 98.53 374.48 C 94.96 374.49 91.39 374.48 87.82 374.37 C 87.75 368.30 87.86 362.23 87.74 356.17 C 82.31 356.06 76.87 356.09 71.44 356.15 C 71.34 362.23 71.47 368.31 71.33 374.38 C 67.80 374.10 63.53 375.36 60.45 373.76 Z" />
<path fill="#141d2b" opacity="1.00" d=" M 123.84 329.75 C 128.62 329.70 133.40 329.68 138.18 329.77 C 143.30 344.59 148.35 359.43 153.40 374.28 C 149.57 374.52 145.72 374.51 141.88 374.41 C 140.96 371.33 140.20 368.19 138.95 365.22 C 133.65 364.47 128.26 365.00 122.93 364.99 C 122.04 368.15 121.08 371.28 120.06 374.40 C 116.31 374.50 112.55 374.52 108.81 374.32 C 113.36 359.32 118.77 344.58 123.84 329.75 M 126.00 355.89 C 129.34 356.12 132.73 356.37 136.05 355.78 C 134.72 349.46 132.41 343.38 131.00 337.07 C 129.32 343.33 127.39 349.55 126.00 355.89 Z" />
<path fill="#141d2b" opacity="1.00" d=" M 213.83 329.77 C 217.41 329.71 220.98 329.70 224.56 329.68 C 224.90 336.15 224.66 342.64 224.72 349.12 C 229.12 342.66 233.49 336.17 237.95 329.75 C 242.08 329.70 246.22 329.65 250.35 329.83 C 246.91 336.25 241.72 341.54 237.46 347.43 C 236.65 348.78 234.47 350.35 235.79 352.05 C 240.88 359.58 247.04 366.39 251.66 374.24 C 247.33 374.57 242.99 374.46 238.65 374.50 C 233.78 367.73 229.37 360.66 224.75 353.72 C 224.61 360.64 224.94 367.58 224.54 374.50 C 220.96 374.48 217.39 374.47 213.82 374.35 C 213.79 359.49 213.76 344.63 213.83 329.77 Z" />
<path fill="#141d2b" opacity="1.00" d=" M 259.41 334.77 C 259.44 333.09 259.49 331.41 259.55 329.74 C 271.62 329.72 283.69 329.65 295.76 329.78 C 295.80 331.44 295.83 333.12 295.86 334.79 C 290.79 334.95 285.71 335.02 280.63 335.20 C 280.31 348.29 280.78 361.39 280.39 374.48 C 278.48 374.45 276.58 374.43 274.68 374.39 C 274.56 361.33 274.70 348.27 274.61 335.21 C 269.54 335.05 264.47 334.88 259.41 334.77 Z" />
<path fill="#141d2b" opacity="1.00" d=" M 307.57 329.74 C 309.48 329.73 311.40 329.73 313.31 329.74 C 313.41 336.02 313.32 342.29 313.38 348.57 C 320.85 348.84 328.33 348.69 335.80 348.66 C 336.34 342.39 335.94 336.10 336.15 329.82 C 337.99 329.74 339.82 329.67 341.67 329.61 C 342.57 335.37 341.98 341.22 342.14 347.02 C 342.02 356.17 342.40 365.32 341.91 374.46 C 339.98 374.44 338.05 374.40 336.12 374.34 C 335.96 367.51 336.33 360.68 335.81 353.86 C 328.39 353.81 320.98 353.89 313.56 353.81 C 313.12 360.66 313.49 367.54 313.32 374.41 C 311.39 374.42 309.47 374.42 307.56 374.41 C 307.47 359.52 307.45 344.63 307.57 329.74 Z" />
<path fill="#141d2b" opacity="1.00" d=" M 360.13 329.74 C 369.69 329.71 379.25 329.68 388.81 329.76 C 388.83 331.44 388.86 333.13 388.89 334.82 C 381.30 334.85 373.72 334.86 366.14 335.21 C 366.11 339.81 366.07 344.41 366.19 349.01 C 373.37 349.29 380.55 349.05 387.74 349.17 C 387.66 350.87 387.59 352.58 387.50 354.29 C 380.38 354.25 373.27 354.22 366.16 354.30 C 366.09 359.26 366.08 364.22 366.19 369.19 C 374.02 369.32 381.85 369.10 389.67 369.32 C 389.72 370.96 389.76 372.61 389.80 374.26 C 379.90 374.67 369.98 374.46 360.08 374.37 C 359.81 359.50 359.71 344.60 360.13 329.74 Z" />
<path fill="#141d2b" opacity="1.00" d=" M 404.19 329.77 C 410.13 329.68 416.08 329.69 422.03 329.71 C 426.16 329.81 430.62 330.24 433.98 332.91 C 438.18 335.98 438.91 342.23 436.63 346.68 C 435.47 349.05 432.97 350.20 430.78 351.44 C 433.14 352.47 435.80 353.44 437.27 355.71 C 440.85 360.78 439.14 368.60 433.82 371.77 C 430.06 374.27 425.35 374.45 420.98 374.48 C 415.37 374.44 409.76 374.55 404.16 374.36 C 404.13 359.50 404.08 344.64 404.19 329.77 M 415.09 338.32 C 414.46 341.33 414.82 344.44 414.77 347.51 C 417.91 347.61 421.11 347.97 424.21 347.28 C 427.92 346.43 428.52 340.44 425.00 338.94 C 421.89 337.63 418.36 338.11 415.09 338.32 M 414.79 356.11 C 414.77 359.30 414.76 362.49 414.72 365.68 C 418.61 366.24 423.05 366.74 426.48 364.39 C 428.31 362.43 428.11 358.70 426.00 356.99 C 422.50 355.39 418.51 356.01 414.79 356.11 Z" />
<path fill="#141d2b" opacity="1.00" d=" M 499.40 329.81 C 503.38 329.67 507.37 329.72 511.36 329.69 C 514.28 334.45 516.46 339.61 519.22 344.47 C 521.77 339.55 524.18 334.58 526.83 329.72 C 530.82 329.71 534.81 329.67 538.81 329.80 C 535.37 337.30 530.61 344.13 526.31 351.16 C 530.29 359.13 535.95 366.18 539.62 374.31 C 535.44 374.55 531.24 374.54 527.06 374.30 C 524.55 369.15 521.83 364.10 519.14 359.04 C 516.51 364.19 513.83 369.32 511.07 374.42 C 507.02 374.47 502.98 374.52 498.94 374.39 C 501.92 366.04 508.59 359.36 511.68 351.15 C 507.93 343.85 502.83 337.28 499.40 329.81 Z" />
</g>
</svg>
