<?xml version="1.0" encoding="UTF-8" ?>
<!DOCTYPE svg PUBLIC "-//W3C//DTD SVG 1.1//EN" "http://www.w3.org/Graphics/SVG/1.1/DTD/svg11.dtd">
<svg width="346pt" height="139pt" viewBox="0 0 346 139" version="1.1" xmlns="http://www.w3.org/2000/svg">
<g id="#ffffffff">
</g>
<g id="#000000ff">
<path fill="#000000" opacity="1.00" d=" M 58.82 19.79 C 65.86 11.99 76.72 8.44 87.06 8.98 C 100.25 9.04 112.52 16.15 120.84 26.10 C 118.12 29.67 115.00 32.90 111.78 36.01 C 104.82 29.29 96.13 23.03 85.97 23.46 C 78.21 23.09 69.23 27.08 67.15 35.17 C 64.90 41.84 68.58 49.13 74.39 52.60 C 87.74 61.07 104.76 63.12 116.33 74.52 C 127.86 85.89 127.11 106.53 115.25 117.40 C 96.13 135.56 61.58 130.48 47.09 108.93 C 50.39 105.68 53.74 102.48 57.20 99.39 C 62.24 103.86 67.05 108.90 73.45 111.41 C 82.39 114.94 93.33 114.88 101.44 109.29 C 107.59 105.19 110.76 96.81 108.11 89.78 C 105.97 84.25 100.72 80.85 95.69 78.22 C 83.79 72.26 70.08 69.19 60.06 59.97 C 48.76 49.95 48.58 30.62 58.82 19.79 Z" />
<path fill="#000000" opacity="1.00" d=" M 156.67 29.65 C 167.38 16.64 184.11 8.75 200.98 8.97 C 216.60 8.52 231.81 15.65 242.80 26.50 C 239.55 30.05 236.38 33.67 233.01 37.11 C 225.63 30.82 216.89 25.67 207.08 24.57 C 192.09 22.43 176.37 29.20 167.51 41.46 C 154.71 58.51 155.93 84.69 170.89 100.06 C 180.88 110.90 196.85 115.69 211.16 112.16 C 219.42 110.36 226.79 105.86 233.21 100.48 C 236.53 103.73 239.66 107.18 242.61 110.77 C 232.18 120.70 218.60 128.05 203.98 128.55 C 188.83 129.36 173.51 123.89 162.27 113.72 C 149.73 102.51 142.59 85.74 142.72 68.97 C 142.57 54.77 147.50 40.52 156.67 29.65 Z" />
<path fill="#000000" opacity="1.00" d=" M 262.85 23.88 C 270.51 14.77 282.22 9.52 294.05 9.17 C 303.73 8.66 313.86 11.26 321.24 17.76 C 329.86 25.06 333.44 36.94 332.38 47.95 C 331.91 56.72 328.57 65.15 323.39 72.19 C 315.82 82.55 305.66 90.57 296.04 98.93 C 284.88 108.48 274.05 118.44 262.71 127.78 C 261.83 121.71 262.27 115.50 262.39 109.38 C 270.99 101.01 280.41 93.45 289.52 85.62 C 297.18 79.00 305.25 72.63 311.35 64.46 C 316.61 57.54 318.97 48.49 317.65 39.89 C 316.74 34.09 313.29 28.61 308.06 25.81 C 300.17 21.60 290.19 22.20 282.51 26.61 C 277.63 29.19 273.84 33.27 269.97 37.11 C 266.94 33.77 263.77 30.54 261.04 26.97 C 261.00 25.69 262.18 24.84 262.85 23.88 Z" />
<path fill="#000000" opacity="1.00" d=" M 324.64 9.13 C 327.64 8.84 330.66 9.05 333.68 9.10 C 334.25 10.81 334.83 12.51 335.44 14.20 C 336.45 12.34 336.34 9.42 338.66 8.54 C 338.76 11.01 338.75 13.48 338.76 15.95 L 337.79 16.04 C 337.74 14.30 337.70 12.56 337.63 10.82 C 337.01 12.73 336.41 14.65 335.71 16.53 C 334.45 15.10 333.83 13.29 333.04 11.60 C 333.01 12.70 332.97 14.90 332.94 16.00 L 331.99 16.00 C 331.76 13.83 333.34 7.74 329.01 10.10 C 329.01 12.26 329.01 14.41 328.90 16.56 C 326.90 15.11 328.02 12.39 327.76 10.34 C 326.98 10.04 325.42 9.43 324.64 9.13 Z" />
<path fill="#000000" opacity="1.00" d=" M 11.24 9.76 C 16.41 9.74 21.58 9.75 26.75 9.75 C 26.76 43.16 26.72 76.56 26.77 109.97 C 26.61 111.26 27.15 112.95 25.97 113.90 C 21.05 118.48 16.42 123.36 11.33 127.74 C 11.15 88.41 11.31 49.08 11.24 9.76 Z" />
</g>
<g id="#448334ff">
<path fill="#448334" opacity="1.00" d=" M 295.26 113.92 C 308.14 113.63 321.04 113.65 333.92 113.91 C 334.04 118.17 334.04 122.44 333.90 126.70 C 321.05 126.78 308.19 126.79 295.33 126.69 C 295.22 122.43 295.23 118.17 295.26 113.92 Z" />
</g>
</svg>
